<svg id="disabled" xmlns="http://www.w3.org/2000/svg" width="23" height="23" viewBox="0 0 23 23">
  <path id="Path_5" data-name="Path 5" d="M0,0H23V23H0ZM0,0H23V23H0ZM0,0H23V23H0ZM0,0H23V23H0Z" fill="none"/>
  <path id="Path_6" data-name="Path 6" d="M11.542,6.833a4.793,4.793,0,0,1,4.792,4.792,4.651,4.651,0,0,1-.345,1.754l2.8,2.8a11.325,11.325,0,0,0,3.287-4.552A11.334,11.334,0,0,0,11.532,4.438a11.16,11.16,0,0,0-3.814.671l2.07,2.07A4.651,4.651,0,0,1,11.542,6.833ZM1.958,4.217,4.143,6.4l.441.441A11.312,11.312,0,0,0,1,11.625a11.329,11.329,0,0,0,14.739,6.383l.4.4,2.808,2.8,1.217-1.217L3.175,3Zm5.3,5.3L8.743,11a2.7,2.7,0,0,0-.077.623A2.871,2.871,0,0,0,11.542,14.5a2.7,2.7,0,0,0,.623-.077l1.485,1.485A4.76,4.76,0,0,1,7.258,9.517Zm4.13-.748,3.019,3.019.019-.153A2.871,2.871,0,0,0,11.551,8.76Z" transform="translate(-0.042 -0.125)" fill="#fff"/>
</svg>
