<svg id="eye-filled" xmlns="http://www.w3.org/2000/svg" width="23" height="23" viewBox="0 0 23 23">
  <path id="Path_9" data-name="Path 9" d="M0,0H23V23H0Z" fill="none"/>
  <path id="Path_10" data-name="Path 10" d="M11.542,4.5A11.334,11.334,0,0,0,1,11.688a11.324,11.324,0,0,0,21.083,0A11.334,11.334,0,0,0,11.542,4.5Zm0,11.979a4.792,4.792,0,1,1,4.792-4.792A4.793,4.793,0,0,1,11.542,16.479Zm0-7.667a2.875,2.875,0,1,0,2.875,2.875A2.871,2.871,0,0,0,11.542,8.813Z" transform="translate(-0.042 -0.187)" fill="#fff"/>
</svg>
