<svg id="eye-outlined" xmlns="http://www.w3.org/2000/svg" width="23" height="23" viewBox="0 0 23 23">
  <path id="Path_7" data-name="Path 7" d="M0,0H23V23H0Z" fill="none"/>
  <path id="Path_8" data-name="Path 8" d="M11.542,5.917a9.363,9.363,0,0,1,8.453,5.271,9.413,9.413,0,0,1-16.905,0,9.363,9.363,0,0,1,8.452-5.271m0-1.917A11.334,11.334,0,0,0,1,11.188a11.324,11.324,0,0,0,21.083,0A11.334,11.334,0,0,0,11.542,4Zm0,4.792a2.4,2.4,0,1,1-2.4,2.4,2.4,2.4,0,0,1,2.4-2.4m0-1.917a4.312,4.312,0,1,0,4.313,4.312A4.319,4.319,0,0,0,11.542,6.875Z" transform="translate(-0.042 -0.167)" fill="#fff"/>
</svg>
