<svg id="lock" xmlns="http://www.w3.org/2000/svg" width="23" height="23" viewBox="0 0 23 23">
  <path id="Path_2" data-name="Path 2" d="M0,0H23V23H0Z" fill="none"/>
  <path id="Path_3" data-name="Path 3" d="M17.417,7.708h-.958V5.792a4.792,4.792,0,0,0-9.583,0V7.708H5.917A1.922,1.922,0,0,0,4,9.625v9.583a1.922,1.922,0,0,0,1.917,1.917h11.5a1.922,1.922,0,0,0,1.917-1.917V9.625A1.922,1.922,0,0,0,17.417,7.708Zm-5.75,8.625a1.917,1.917,0,1,1,1.917-1.917A1.922,1.922,0,0,1,11.667,16.333Zm2.971-8.625H8.7V5.792a2.971,2.971,0,0,1,5.942,0Z" transform="translate(-0.167 -0.042)" fill="#fff"/>
</svg>
