<?xml version="1.0" encoding="UTF-8" standalone="no"?>
<!DOCTYPE svg PUBLIC "-//W3C//DTD SVG 1.1//EN" "http://www.w3.org/Graphics/SVG/1.1/DTD/svg11.dtd">
<svg width="200" height="100" viewBox="0 0 8398 3558" version="1.1" style="fill-rule:evenodd;clip-rule:evenodd;stroke-linejoin:round;stroke-miterlimit:2;">
    <g transform="matrix(1,0,0,1,-71560,-18727.7)">
        <g id="FINAL" transform="matrix(0.545998,0,0,0.476624,70910.8,17625.3)">
            <rect x="1189" y="2313" width="15381" height="7465" style="fill:none;"/>
            <clipPath id="_clip1">
                <rect x="1189" y="2313" width="15381" height="7465"/>
            </clipPath>
            <g clip-path="url(#_clip1)">
                <g transform="matrix(1.83151,0,0,2.09809,-8573.39,-6065.35)">
                    <g transform="matrix(1.93556,0,0,1.93556,-36293.8,-1436.22)">
                        <g transform="matrix(2422.58,0,0,2422.58,21464.7,4615)">
                            <path d="M0.125,-0.468C0.125,-0.466 0.132,-0.45 0.146,-0.419L0.234,-0.217L0.269,-0.139L0.338,-0.297L0.413,-0.468L0.521,-0.468L0.416,-0.233L0.349,-0.084L0.312,-0L0.227,-0C0.227,-0 0.222,-0.011 0.212,-0.033L0.123,-0.23L0.028,-0.442L0.017,-0.468L0.125,-0.468Z" style="fill:rgb(35,7,157);fill-rule:nonzero;"/>
                        </g>
                        <g transform="matrix(2422.58,0,0,2422.58,22611.2,4615)">
                            <path d="M0.28,-0.475L0.281,-0.475C0.33,-0.475 0.376,-0.46 0.418,-0.43C0.426,-0.424 0.435,-0.417 0.444,-0.407C0.456,-0.395 0.464,-0.386 0.468,-0.379C0.473,-0.373 0.476,-0.369 0.476,-0.369L0.397,-0.317L0.397,-0.317C0.393,-0.323 0.387,-0.33 0.378,-0.34C0.349,-0.367 0.317,-0.381 0.28,-0.381C0.245,-0.381 0.214,-0.368 0.186,-0.343C0.175,-0.332 0.169,-0.325 0.167,-0.32C0.148,-0.294 0.138,-0.264 0.138,-0.231C0.138,-0.196 0.149,-0.164 0.172,-0.135C0.179,-0.127 0.187,-0.119 0.194,-0.113C0.22,-0.093 0.249,-0.083 0.281,-0.083C0.309,-0.083 0.336,-0.091 0.361,-0.109C0.366,-0.112 0.374,-0.119 0.384,-0.129C0.389,-0.135 0.394,-0.142 0.398,-0.148L0.398,-0.148L0.477,-0.096C0.472,-0.087 0.464,-0.078 0.455,-0.067C0.444,-0.055 0.436,-0.047 0.431,-0.044C0.42,-0.035 0.411,-0.028 0.403,-0.023C0.365,-0 0.324,0.012 0.283,0.012L0.278,0.012C0.234,0.012 0.191,-0.001 0.151,-0.028C0.143,-0.033 0.136,-0.039 0.129,-0.044C0.117,-0.055 0.108,-0.064 0.103,-0.071C0.09,-0.087 0.08,-0.101 0.075,-0.111C0.069,-0.122 0.063,-0.136 0.057,-0.153C0.048,-0.179 0.044,-0.204 0.044,-0.228L0.044,-0.235C0.044,-0.272 0.053,-0.308 0.071,-0.345C0.076,-0.355 0.083,-0.366 0.09,-0.376C0.095,-0.384 0.104,-0.394 0.115,-0.406C0.128,-0.418 0.139,-0.428 0.148,-0.434C0.189,-0.461 0.233,-0.475 0.28,-0.475Z" style="fill:rgb(35,7,157);fill-rule:nonzero;"/>
                        </g>
                        <g transform="matrix(2422.58,0,0,2422.58,23979.3,4615)">
                            <path d="M-0.025,-0.468L0.301,-0.468L0.302,-0.468L0.302,-0.374L0.301,-0.374L0.18,-0.374L0.18,-0.138C0.18,-0.119 0.186,-0.107 0.199,-0.101C0.207,-0.097 0.216,-0.094 0.225,-0.094C0.238,-0.094 0.256,-0.098 0.279,-0.107L0.283,-0.109L0.318,-0.021C0.311,-0.017 0.298,-0.013 0.28,-0.008C0.259,-0.003 0.241,-0 0.226,-0L0.225,-0C0.194,-0 0.165,-0.009 0.138,-0.028C0.133,-0.032 0.127,-0.037 0.12,-0.044L0.111,-0.055C0.106,-0.062 0.102,-0.068 0.099,-0.075C0.09,-0.095 0.086,-0.114 0.086,-0.134L0.086,-0.374L-0.025,-0.374L-0.025,-0.374L-0.025,-0.468L-0.025,-0.468Z" style="fill:rgb(35,7,157);fill-rule:nonzero;"/>
                        </g>
                        <g transform="matrix(2422.58,0,0,2422.58,24827.5,4615)">
                            <path d="M0.279,-0.471L0.291,-0.471C0.323,-0.471 0.357,-0.461 0.391,-0.442L0.391,-0.442C0.377,-0.38 0.37,-0.348 0.369,-0.345C0.337,-0.365 0.31,-0.375 0.286,-0.375L0.278,-0.375C0.247,-0.375 0.219,-0.364 0.195,-0.341C0.177,-0.319 0.168,-0.278 0.168,-0.217L0.168,-0.002L0.167,-0L0.076,-0L0.075,-0.002L0.075,-0.46L0.076,-0.461L0.167,-0.461L0.168,-0.46L0.168,-0.425C0.204,-0.456 0.241,-0.471 0.279,-0.471Z" style="fill:rgb(35,7,157);fill-rule:nonzero;"/>
                        </g>
                    </g>
                    <g transform="matrix(6.12323e-17,-1,5.23987,3.2085e-16,-17640.9,34029.8)">
                        <path d="M29477,4383.92L29037.4,4383.92L29037.4,5566.75L29477,5443.08L29477,4383.92Z" style="fill:rgb(35,7,157);"/>
                    </g>
                    <g transform="matrix(2.3867,-2.81826e-16,1.24631,0.882453,-108886,-29582.2)">
                        <rect x="30231" y="38202" width="346.073" height="978.086" style="fill:rgb(35,7,157);"/>
                    </g>
                </g>
                <g transform="matrix(1.83151,0,0,2.09809,-8336.67,-6356.3)">
                    <g transform="matrix(1.93556,0,0,1.93556,-36293.8,-1436.22)">
                        <g transform="matrix(2422.58,0,0,2422.58,21464.7,4615)">
                            <path d="M0.125,-0.468C0.125,-0.466 0.132,-0.45 0.146,-0.419L0.234,-0.217L0.269,-0.139L0.338,-0.297L0.413,-0.468L0.521,-0.468L0.416,-0.233L0.349,-0.084L0.312,-0L0.227,-0C0.227,-0 0.222,-0.011 0.212,-0.033L0.123,-0.23L0.028,-0.442L0.017,-0.468L0.125,-0.468Z" style="fill:rgb(243,13,15);fill-rule:nonzero;"/>
                        </g>
                        <g transform="matrix(2422.58,0,0,2422.58,22611.2,4615)">
                            <path d="M0.28,-0.475L0.281,-0.475C0.33,-0.475 0.376,-0.46 0.418,-0.43C0.426,-0.424 0.435,-0.417 0.444,-0.407C0.456,-0.395 0.464,-0.386 0.468,-0.379C0.473,-0.373 0.476,-0.369 0.476,-0.369L0.397,-0.317L0.397,-0.317C0.393,-0.323 0.387,-0.33 0.378,-0.34C0.349,-0.367 0.317,-0.381 0.28,-0.381C0.245,-0.381 0.214,-0.368 0.186,-0.343C0.175,-0.332 0.169,-0.325 0.167,-0.32C0.148,-0.294 0.138,-0.264 0.138,-0.231C0.138,-0.196 0.149,-0.164 0.172,-0.135C0.179,-0.127 0.187,-0.119 0.194,-0.113C0.22,-0.093 0.249,-0.083 0.281,-0.083C0.309,-0.083 0.336,-0.091 0.361,-0.109C0.366,-0.112 0.374,-0.119 0.384,-0.129C0.389,-0.135 0.394,-0.142 0.398,-0.148L0.398,-0.148L0.477,-0.096C0.472,-0.087 0.464,-0.078 0.455,-0.067C0.444,-0.055 0.436,-0.047 0.431,-0.044C0.42,-0.035 0.411,-0.028 0.403,-0.023C0.365,-0 0.324,0.012 0.283,0.012L0.278,0.012C0.234,0.012 0.191,-0.001 0.151,-0.028C0.143,-0.033 0.136,-0.039 0.129,-0.044C0.117,-0.055 0.108,-0.064 0.103,-0.071C0.09,-0.087 0.08,-0.101 0.075,-0.111C0.069,-0.122 0.063,-0.136 0.057,-0.153C0.048,-0.179 0.044,-0.204 0.044,-0.228L0.044,-0.235C0.044,-0.272 0.053,-0.308 0.071,-0.345C0.076,-0.355 0.083,-0.366 0.09,-0.376C0.095,-0.384 0.104,-0.394 0.115,-0.406C0.128,-0.418 0.139,-0.428 0.148,-0.434C0.189,-0.461 0.233,-0.475 0.28,-0.475Z" style="fill:rgb(243,13,15);fill-rule:nonzero;"/>
                        </g>
                        <g transform="matrix(2422.58,0,0,2422.58,23979.3,4615)">
                            <path d="M-0.025,-0.468L0.301,-0.468L0.302,-0.468L0.302,-0.374L0.301,-0.374L0.18,-0.374L0.18,-0.138C0.18,-0.119 0.186,-0.107 0.199,-0.101C0.207,-0.097 0.216,-0.094 0.225,-0.094C0.238,-0.094 0.256,-0.098 0.279,-0.107L0.283,-0.109L0.318,-0.021C0.311,-0.017 0.298,-0.013 0.28,-0.008C0.259,-0.003 0.241,-0 0.226,-0L0.225,-0C0.194,-0 0.165,-0.009 0.138,-0.028C0.133,-0.032 0.127,-0.037 0.12,-0.044L0.111,-0.055C0.106,-0.062 0.102,-0.068 0.099,-0.075C0.09,-0.095 0.086,-0.114 0.086,-0.134L0.086,-0.374L-0.025,-0.374L-0.025,-0.374L-0.025,-0.468L-0.025,-0.468Z" style="fill:rgb(243,13,15);fill-rule:nonzero;"/>
                        </g>
                        <g transform="matrix(2422.58,0,0,2422.58,24827.5,4615)">
                            <path d="M0.279,-0.471L0.291,-0.471C0.323,-0.471 0.357,-0.461 0.391,-0.442L0.391,-0.442C0.377,-0.38 0.37,-0.348 0.369,-0.345C0.337,-0.365 0.31,-0.375 0.286,-0.375L0.278,-0.375C0.247,-0.375 0.219,-0.364 0.195,-0.341C0.177,-0.319 0.168,-0.278 0.168,-0.217L0.168,-0.002L0.167,-0L0.076,-0L0.075,-0.002L0.075,-0.46L0.076,-0.461L0.167,-0.461L0.168,-0.46L0.168,-0.425C0.204,-0.456 0.241,-0.471 0.279,-0.471Z" style="fill:rgb(243,13,15);fill-rule:nonzero;"/>
                        </g>
                    </g>
                    <g transform="matrix(6.12323e-17,-1,5.23987,3.2085e-16,-17640.9,34029.8)">
                        <path d="M29477,4383.92L29037.4,4383.92L29037.4,5566.75L29477,5443.08L29477,4383.92Z" style="fill:rgb(243,13,15);"/>
                    </g>
                    <g transform="matrix(2.3867,-2.81826e-16,1.24631,0.882453,-108886,-29582.2)">
                        <rect x="30231" y="38202" width="346.073" height="978.086" style="fill:rgb(243,13,15);"/>
                    </g>
                </g>
            </g>
        </g>
    </g>
</svg>
